<mxfile host="app.diagrams.net" modified="2023-08-31T02:57:54.379Z" agent="Mozilla/5.0 (Windows NT 10.0; Win64; x64) AppleWebKit/537.36 (KHTML, like Gecko) Chrome/107.0.0.0 Safari/537.36" version="21.6.3" etag="mr1kSojBIFhZWOoc78pW" type="github">
  <diagram name="第 1 页" id="Y4HvBTSY4LNRc7M8FJB2">
    <mxGraphModel>
      <root>
        <mxCell id="0" />
        <mxCell id="1" parent="0" />
      </root>
    </mxGraphModel>
  </diagram>
</mxfile>
